<svg width="115" height="100" viewBox="0 0 115 100" fill="none" xmlns="http://www.w3.org/2000/svg">
<path d="M93.6147 32.4062C92.4094 32.0044 91.2041 31.625 89.9988 31.2679C90.1997 30.442 90.3783 29.6162 90.5568 28.7903C93.3022 15.4875 91.4943 4.79606 85.4009 1.26946C79.5306 -2.10089 69.9553 1.40338 60.2683 9.84043C59.3085 10.6663 58.3711 11.5368 57.4782 12.4073C56.8756 11.8269 56.2506 11.2466 55.6257 10.6886C45.47 1.67123 35.2919 -2.12321 29.1985 1.4257C23.3506 4.81838 21.6096 14.8848 24.0649 27.4734C24.3104 28.7234 24.5782 29.951 24.8907 31.2009C23.4622 31.6027 22.056 32.0491 20.7391 32.5178C8.82013 36.647 0.271484 43.1645 0.271484 49.9053C0.271484 56.8692 9.37814 63.8554 21.7659 68.0962C22.7703 68.4311 23.7747 68.7659 24.8014 69.056C24.4666 70.3952 24.1765 71.7121 23.9086 73.0737C21.565 85.4614 23.3952 95.2823 29.2432 98.6527C35.2696 102.135 45.403 98.5634 55.2685 89.9254C56.0498 89.2335 56.831 88.5193 57.6122 87.7604C58.5943 88.7201 59.621 89.6353 60.6477 90.5281C70.2008 98.7419 79.6422 102.068 85.4678 98.6973C91.4943 95.2153 93.4585 84.6579 90.914 71.8014C90.7131 70.8193 90.4899 69.8149 90.2444 68.7882C90.9586 68.5873 91.6505 68.3641 92.3425 68.1409C105.221 63.8777 114.551 56.9808 114.551 49.9053C114.551 43.1422 105.757 36.5801 93.6147 32.4062ZM63.4154 13.4563C71.7186 6.22456 79.4637 3.38988 82.9903 5.42103C86.7624 7.58609 88.2132 16.3356 85.8473 27.8305C85.691 28.5894 85.5348 29.326 85.3339 30.0626C80.3788 28.9466 75.3568 28.143 70.3124 27.6966C67.4108 23.5451 64.2413 19.5721 60.804 15.8446C61.6745 15.0187 62.5226 14.2375 63.4154 13.4563ZM37.5909 61.4895C38.7293 63.4313 39.8899 65.3732 41.1175 67.2704C37.6356 66.891 34.1759 66.3329 30.7609 65.5964C31.743 62.3823 32.9706 59.0566 34.3991 55.6639C35.4259 57.6281 36.4749 59.5699 37.5909 61.4895ZM30.8279 34.6382C34.042 33.924 37.457 33.3436 41.0059 32.8972C39.8229 34.7498 38.6623 36.647 37.5686 38.5666C36.4749 40.4638 35.4035 42.4057 34.3991 44.3698C32.9929 41.0441 31.81 37.7854 30.8279 34.6382ZM36.9436 50.0169C38.4168 46.9367 40.0238 43.9234 41.7202 40.9548C43.4165 37.9862 45.2468 35.1069 47.1663 32.2723C50.5143 32.0267 53.9293 31.8928 57.4113 31.8928C60.8932 31.8928 64.3306 32.0267 67.6563 32.2723C69.5535 35.0846 71.3614 37.9639 73.0801 40.9102C74.7988 43.8565 76.4058 46.8697 77.9236 49.9276C76.4281 53.0078 74.8211 56.0433 73.1024 59.0342C71.4061 62.0028 69.5981 64.8821 67.7009 67.7391C64.3752 67.9846 60.9156 68.0962 57.4113 68.0962C53.907 68.0962 50.5143 67.9846 47.2333 67.7838C45.2914 64.9491 43.4611 62.0475 41.7425 59.0789C40.0238 56.1103 38.4391 53.0971 36.9436 50.0169ZM77.254 61.4448C78.3923 59.4806 79.4637 57.4941 80.5127 55.4853C81.9412 58.7218 83.1912 62.0028 84.2849 65.3732C80.8252 66.1544 77.3209 66.757 73.7943 67.1588C74.9996 65.2839 76.138 63.3644 77.254 61.4448ZM80.4681 44.3698C79.419 42.4057 78.3477 40.4415 77.2317 38.5219C76.138 36.6247 74.9996 34.7498 73.8167 32.8972C77.4102 33.3436 80.8475 33.9463 84.0616 34.6829C83.0349 37.9862 81.8296 41.2004 80.4681 44.3698ZM57.4559 19.2596C59.7996 21.8041 62.0093 24.4825 64.0627 27.2502C59.6433 27.0493 55.2016 27.0493 50.7822 27.2502C52.9696 24.3709 55.2239 21.6925 57.4559 19.2596ZM31.5645 5.57727C35.3143 3.38988 43.6397 6.51472 52.4116 14.2822C52.9696 14.7732 53.5276 15.3089 54.1079 15.8446C50.6483 19.5721 47.4565 23.5451 44.5325 27.6966C39.4881 28.143 34.4884 28.9242 29.5333 30.0179C29.2432 28.8796 28.9976 27.7189 28.7521 26.5583C26.654 15.7553 28.0379 7.60841 31.5645 5.57727ZM26.096 64.4134C25.1585 64.1456 24.2434 63.8554 23.3283 63.5429C18.5741 62.0475 13.1726 59.6815 9.26654 56.579C7.0122 55.0166 5.49442 52.606 5.07034 49.9053C5.07034 45.8207 12.1235 40.5977 22.3016 37.0488C23.5738 36.6024 24.8684 36.2006 26.163 35.8212C27.6807 40.6647 29.511 45.4189 31.6314 50.0169C29.4887 54.6818 27.6361 59.503 26.096 64.4134ZM52.1214 86.2872C48.4386 89.6576 44.1754 92.336 39.5328 94.1663C37.0552 95.3493 34.1982 95.4609 31.6537 94.4564C28.1048 92.403 26.6317 84.5239 28.6405 73.9218C28.886 72.6719 29.1539 71.422 29.4664 70.1944C34.4661 71.2657 39.5105 72.0023 44.6218 72.3817C47.5681 76.5556 50.8045 80.5509 54.2641 84.3007C53.5499 84.9927 52.8356 85.6623 52.1214 86.2872ZM57.5898 80.8634C55.3132 78.4082 53.0365 75.6851 50.8268 72.7612C52.9696 72.8505 55.1793 72.8951 57.4113 72.8951C59.7103 72.8951 61.9646 72.8505 64.1966 72.7389C62.1432 75.5735 59.9335 78.2743 57.5898 80.8634ZM86.7624 87.5595C86.5615 90.2826 85.2223 92.8271 83.0796 94.5457C79.5306 96.5992 71.9641 93.9208 63.7949 86.9122C62.8574 86.1087 61.92 85.2382 60.9602 84.3454C64.3752 80.5733 67.5224 76.5779 70.3793 72.3817C75.4907 71.9576 80.5797 71.1764 85.6017 70.0381C85.8249 70.9532 86.0258 71.8684 86.2044 72.7612C87.2981 77.5823 87.4766 82.6044 86.7624 87.5595ZM90.8247 63.5652C90.1997 63.7661 89.5748 63.967 88.9275 64.1456C87.365 59.2798 85.4455 54.5255 83.2358 49.9053C85.3785 45.3519 87.1865 40.6647 88.7043 35.8658C89.8649 36.2006 90.9809 36.5578 92.0523 36.9149C102.454 40.4861 109.752 45.7983 109.752 49.8606C109.752 54.2354 101.962 59.8824 90.8247 63.5652ZM57.4113 60.2172C63.0583 60.2172 67.634 55.6416 67.634 49.9945C67.634 44.3475 63.0583 39.7719 57.4113 39.7719C51.7643 39.7719 47.1886 44.3475 47.1886 49.9945C47.1886 55.6416 51.7643 60.2172 57.4113 60.2172Z" fill="white"/>
</svg>
