<svg width="89" height="100" viewBox="0 0 89 100" fill="none" xmlns="http://www.w3.org/2000/svg">
<path d="M59.0285 47.5C59.0285 50.55 56.7785 53.05 53.9285 53.05C51.1285 53.05 48.8285 50.55 48.8285 47.5C48.8285 44.45 51.0785 41.95 53.9285 41.95C56.7785 41.95 59.0285 44.45 59.0285 47.5ZM35.6785 41.95C32.8285 41.95 30.5785 44.45 30.5785 47.5C30.5785 50.55 32.8785 53.05 35.6785 53.05C38.5285 53.05 40.7785 50.55 40.7785 47.5C40.8285 44.45 38.5285 41.95 35.6785 41.95ZM88.4785 10.3V100C75.882 88.8684 79.9105 92.5531 65.2785 78.95L67.9285 88.2H11.2285C5.57852 88.2 0.978516 83.6 0.978516 77.9V10.3C0.978516 4.6 5.57852 0 11.2285 0H78.2285C83.8785 0 88.4785 4.6 88.4785 10.3ZM74.2285 57.7C74.2285 41.6 67.0285 28.55 67.0285 28.55C59.8285 23.15 52.9785 23.3 52.9785 23.3L52.2785 24.1C60.7785 26.7 64.7285 30.45 64.7285 30.45C52.8514 23.9404 38.8996 23.9393 27.3785 29C25.5285 29.85 24.4285 30.45 24.4285 30.45C24.4285 30.45 28.5785 26.5 37.5785 23.9L37.0785 23.3C37.0785 23.3 30.2285 23.15 23.0285 28.55C23.0285 28.55 15.8285 41.6 15.8285 57.7C15.8285 57.7 20.0285 64.95 31.0785 65.3C31.0785 65.3 32.9285 63.05 34.4285 61.15C28.0785 59.25 25.6785 55.25 25.6785 55.25C26.4141 55.7648 27.627 56.4322 27.7285 56.5C36.168 61.2262 48.1559 62.7746 58.9285 58.25C60.6785 57.6 62.6285 56.65 64.6785 55.3C64.6785 55.3 62.1785 59.4 55.6285 61.25C57.1285 63.15 58.9285 65.3 58.9285 65.3C69.9785 64.95 74.2285 57.7 74.2285 57.7Z" fill="white"/>
</svg>
