<svg width="134" height="100" viewBox="0 0 134 100" fill="none" xmlns="http://www.w3.org/2000/svg">
<path d="M130.807 33.0208C131.823 32.2135 133.333 32.9687 133.333 34.2448V87.5C133.333 94.401 127.734 100 120.833 100H12.5C5.59896 100 0 94.401 0 87.5V34.2708C0 32.9688 1.48437 32.2396 2.52604 33.0469C8.35937 37.5781 16.0938 43.3333 42.6562 62.6302C48.151 66.6406 57.4219 75.0781 66.6667 75.026C75.9635 75.1042 85.4167 66.4844 90.7031 62.6302C117.266 43.3333 124.974 37.5521 130.807 33.0208ZM66.6667 66.6667C72.7083 66.7708 81.4062 59.0625 85.7812 55.8854C120.339 30.8073 122.969 28.6198 130.937 22.3698C132.448 21.1979 133.333 19.375 133.333 17.4479V12.5C133.333 5.59896 127.734 0 120.833 0H12.5C5.59896 0 0 5.59896 0 12.5V17.4479C0 19.375 0.885417 21.1719 2.39583 22.3698C10.3646 28.5937 12.9948 30.8073 47.5521 55.8854C51.9271 59.0625 60.625 66.7708 66.6667 66.6667Z" fill="white"/>
</svg>
