<svg width="101" height="100" viewBox="0 0 101 100" fill="none" xmlns="http://www.w3.org/2000/svg">
<path d="M50.0223 24.3613C35.8306 24.3613 24.3836 35.8083 24.3836 50C24.3836 64.1917 35.8306 75.6387 50.0223 75.6387C64.214 75.6387 75.6611 64.1917 75.6611 50C75.6611 35.8083 64.214 24.3613 50.0223 24.3613ZM50.0223 66.6685C40.8513 66.6685 33.3538 59.1934 33.3538 50C33.3538 40.8067 40.829 33.3315 50.0223 33.3315C59.2157 33.3315 66.6908 40.8067 66.6908 50C66.6908 59.1934 59.1934 66.6685 50.0223 66.6685ZM82.69 23.3125C82.69 26.6373 80.0123 29.2927 76.7098 29.2927C73.385 29.2927 70.7297 26.615 70.7297 23.3125C70.7297 20.01 73.4074 17.3324 76.7098 17.3324C80.0123 17.3324 82.69 20.01 82.69 23.3125ZM99.6709 29.3819C99.2915 21.3712 97.4618 14.2754 91.5932 8.4291C85.747 2.58284 78.6511 0.753096 70.6404 0.351445C62.3843 -0.117148 37.6381 -0.117148 29.3819 0.351445C21.3935 0.730782 14.2977 2.56053 8.4291 8.40678C2.56053 14.253 0.753096 21.3489 0.351445 29.3596C-0.117148 37.6158 -0.117148 62.3619 0.351445 70.6181C0.730782 78.6288 2.56053 85.7246 8.4291 91.5709C14.2977 97.4172 21.3712 99.2469 29.3819 99.6486C37.6381 100.117 62.3843 100.117 70.6404 99.6486C78.6511 99.2692 85.747 97.4395 91.5932 91.5709C97.4395 85.7246 99.2692 78.6288 99.6709 70.6181C100.139 62.3619 100.139 37.6381 99.6709 29.3819ZM89.0048 79.4767C87.2643 83.8503 83.8949 87.2197 79.4991 88.9825C72.9164 91.5932 57.2967 90.9907 50.0223 90.9907C42.748 90.9907 27.1059 91.5709 20.5456 88.9825C16.172 87.242 12.8026 83.8726 11.0398 79.4767C8.4291 72.8941 9.03158 57.2744 9.03158 50C9.03158 42.7257 8.45141 27.0836 11.0398 20.5233C12.7803 16.1497 16.1497 12.7803 20.5456 11.0175C27.1282 8.40678 42.748 9.00926 50.0223 9.00926C57.2967 9.00926 72.9388 8.4291 79.4991 11.0175C83.8726 12.758 87.242 16.1274 89.0048 20.5233C91.6155 27.1059 91.0131 42.7257 91.0131 50C91.0131 57.2744 91.6155 72.9164 89.0048 79.4767Z" fill="white"/>
</svg>
