<svg width="100" height="100" viewBox="0 0 100 100" fill="none" xmlns="http://www.w3.org/2000/svg">
<path d="M92.8571 0H7.12054C3.19196 0 0 3.23661 0 7.20982V92.7902C0 96.7634 3.19196 100 7.12054 100H92.8571C96.7857 100 100 96.7634 100 92.7902V7.20982C100 3.23661 96.7857 0 92.8571 0ZM30.2232 85.7143H15.4018V37.9911H30.2455V85.7143H30.2232ZM22.8125 31.4732C18.058 31.4732 14.2188 27.6116 14.2188 22.8795C14.2188 18.1473 18.058 14.2857 22.8125 14.2857C27.5446 14.2857 31.4062 18.1473 31.4062 22.8795C31.4062 27.6339 27.567 31.4732 22.8125 31.4732ZM85.7812 85.7143H70.9598V62.5C70.9598 56.9643 70.8482 49.8438 63.2589 49.8438C55.5357 49.8438 54.3527 55.8705 54.3527 62.0982V85.7143H39.5313V37.9911H53.75V44.5089H53.9509C55.9375 40.7589 60.7813 36.808 67.9911 36.808C82.9911 36.808 85.7812 46.6964 85.7812 59.5536V85.7143Z" fill="white"/>
</svg>
