<svg width="101" height="100" viewBox="0 0 101 100" fill="none" xmlns="http://www.w3.org/2000/svg">
<path d="M89.6197 0H11.0483C5.13086 0 0.333984 4.79687 0.333984 10.7143V89.2857C0.333984 95.2031 5.13086 100 11.0483 100H89.6197C95.5371 100 100.334 95.2031 100.334 89.2857V10.7143C100.334 4.79687 95.5371 0 89.6197 0ZM21.3161 85.7143C19.7463 85.7143 18.4016 84.6266 18.0536 83.119L14.7059 68.61C14.5293 67.845 14.6272 67.0423 14.9825 66.3422C15.3377 65.642 15.9277 65.089 16.6494 64.7797L32.2739 58.0835C32.9414 57.7975 33.6837 57.7362 34.389 57.9088C35.0943 58.0815 35.7244 58.4788 36.1842 59.0408L43.1032 67.4973C54.0282 62.3717 62.8123 53.4665 67.8311 42.7696L59.3744 35.8507C58.8124 35.3908 58.4151 34.7608 58.2424 34.0555C58.0698 33.3502 58.131 32.6078 58.417 31.9404L65.1134 16.3158C65.4227 15.5942 65.9758 15.0042 66.6759 14.649C67.3761 14.2937 68.1788 14.1958 68.9438 14.3723L83.4527 17.7201C84.1905 17.8902 84.8488 18.3053 85.3202 18.8978C85.7916 19.4903 86.0483 20.225 86.0483 20.9821C86.0483 56.7616 57.0427 85.7143 21.3161 85.7143Z" fill="white"/>
</svg>
