<svg width="101" height="100" viewBox="0 0 101 100" fill="none" xmlns="http://www.w3.org/2000/svg">
<path d="M21.9874 63.192C21.9874 68.9732 17.2642 73.6964 11.483 73.6964C5.70173 73.6964 0.978516 68.9732 0.978516 63.192C0.978516 57.4107 5.70173 52.6875 11.483 52.6875H21.9874V63.192ZM27.2821 63.192C27.2821 57.4107 32.0053 52.6875 37.7865 52.6875C43.5678 52.6875 48.291 57.4107 48.291 63.192V89.4955C48.291 95.2768 43.5678 100 37.7865 100C32.0053 100 27.2821 95.2768 27.2821 89.4955V63.192ZM37.7865 21.0089C32.0053 21.0089 27.2821 16.2857 27.2821 10.5045C27.2821 4.72321 32.0053 0 37.7865 0C43.5678 0 48.291 4.72321 48.291 10.5045V21.0089H37.7865ZM37.7865 26.3036C43.5678 26.3036 48.291 31.0268 48.291 36.808C48.291 42.5893 43.5678 47.3125 37.7865 47.3125H11.483C5.70173 47.3125 0.978516 42.5893 0.978516 36.808C0.978516 31.0268 5.70173 26.3036 11.483 26.3036H37.7865ZM79.9696 36.808C79.9696 31.0268 84.6928 26.3036 90.4741 26.3036C96.2553 26.3036 100.979 31.0268 100.979 36.808C100.979 42.5893 96.2553 47.3125 90.4741 47.3125H79.9696V36.808ZM74.6749 36.808C74.6749 42.5893 69.9517 47.3125 64.1705 47.3125C58.3892 47.3125 53.666 42.5893 53.666 36.808V10.5045C53.666 4.72321 58.3892 0 64.1705 0C69.9517 0 74.6749 4.72321 74.6749 10.5045V36.808ZM64.1705 78.9911C69.9517 78.9911 74.6749 83.7143 74.6749 89.4955C74.6749 95.2768 69.9517 100 64.1705 100C58.3892 100 53.666 95.2768 53.666 89.4955V78.9911H64.1705ZM64.1705 73.6964C58.3892 73.6964 53.666 68.9732 53.666 63.192C53.666 57.4107 58.3892 52.6875 64.1705 52.6875H90.4741C96.2553 52.6875 100.979 57.4107 100.979 63.192C100.979 68.9732 96.2553 73.6964 90.4741 73.6964H64.1705Z" fill="white"/>
</svg>
