<svg width="101" height="100" viewBox="0 0 101 100" fill="none" xmlns="http://www.w3.org/2000/svg">
<path d="M90.2642 0H11.6928C5.77762 0 0.978516 4.79911 0.978516 10.7143V89.2857C0.978516 95.2009 5.77762 100 11.6928 100H90.2642C96.1794 100 100.979 95.2009 100.979 89.2857V10.7143C100.979 4.79911 96.1794 0 90.2642 0ZM79.3491 35.4464C79.3937 36.0714 79.3937 36.7188 79.3937 37.3438C79.3937 56.6964 64.6615 78.9955 37.7419 78.9955C29.4383 78.9955 21.7374 76.5848 15.2642 72.433C16.4473 72.567 17.5857 72.6116 18.791 72.6116C25.6437 72.6116 31.9383 70.2902 36.9607 66.3616C30.5321 66.2277 25.1303 62.0089 23.2776 56.2054C25.5321 56.5402 27.5633 56.5402 29.8848 55.9375C23.1883 54.5759 18.166 48.683 18.166 41.5625V41.3839C20.108 42.4777 22.3848 43.1473 24.7732 43.2366C22.7652 41.901 21.1191 40.089 19.9818 37.9624C18.8445 35.8358 18.2514 33.4607 18.2553 31.0491C18.2553 28.3259 18.9696 25.8259 20.2419 23.6607C27.4517 32.5446 38.2776 38.3482 50.4205 38.9732C48.3446 29.0402 55.7776 20.9821 64.7062 20.9821C68.9249 20.9821 72.7196 22.7455 75.3982 25.6027C78.7017 24.9777 81.8714 23.75 84.6839 22.0759C83.5901 25.4687 81.291 28.3259 78.2553 30.1339C81.2017 29.8214 84.0589 28.9955 86.6928 27.8571C84.7062 30.7813 82.2062 33.3705 79.3491 35.4464Z" fill="white"/>
</svg>
