<svg width="101" height="100" viewBox="0 0 101 100" fill="none" xmlns="http://www.w3.org/2000/svg">
<path d="M50.9785 20.2679C34.7508 20.2679 21.5589 33.4598 21.5366 49.6875C21.5366 55.2455 23.0991 60.6696 26.0455 65.3348L26.7374 66.4509L23.7687 77.2991L34.9071 74.375L35.9785 75.0223C40.4874 77.7009 45.666 79.1295 50.9562 79.1295H50.9785C67.1839 79.1295 80.733 65.9375 80.733 49.7098C80.733 41.8527 77.3401 34.4643 71.7821 28.9062C66.2017 23.3259 58.8357 20.2679 50.9785 20.2679ZM68.2776 62.3214C67.541 64.3973 64.0142 66.2723 62.3178 66.5179C59.5053 66.942 57.3178 66.7188 51.7151 64.308C42.8535 60.4688 37.0499 51.5402 36.6035 50.9598C36.1571 50.3795 32.9874 46.1607 32.9874 41.808C32.9874 37.4554 35.2642 35.3125 36.0901 34.4196C36.8937 33.5268 37.8535 33.3036 38.4562 33.3036C39.0365 33.3036 39.6392 33.3036 40.1526 33.3259C40.6883 33.3482 41.4249 33.125 42.1392 34.8438C42.8758 36.6071 44.6392 40.9598 44.8624 41.4062C45.0857 41.8527 45.2419 42.3661 44.9294 42.9464C43.233 46.3393 41.4249 46.2054 42.3401 47.7679C45.7553 53.6384 49.1705 55.6696 54.3714 58.2813C55.2642 58.7277 55.7776 58.6607 56.291 58.058C56.8044 57.4777 58.5008 55.4688 59.0812 54.5982C59.6615 53.7054 60.2642 53.8616 61.0678 54.1518C61.8714 54.442 66.224 56.5848 67.1169 57.0312C68.0098 57.4777 68.5901 57.7009 68.8133 58.058C69.0142 58.4821 69.0142 60.2679 68.2776 62.3214ZM90.2642 0H11.6928C5.77762 0 0.978516 4.79911 0.978516 10.7143V89.2857C0.978516 95.2009 5.77762 100 11.6928 100H90.2642C96.1794 100 100.979 95.2009 100.979 89.2857V10.7143C100.979 4.79911 96.1794 0 90.2642 0ZM50.9562 85.0893C45.0187 85.0893 39.1928 83.5937 34.0366 80.7812L15.2642 85.7143L20.2866 67.3661C17.1839 62.0089 15.5544 55.9152 15.5544 49.6652C15.5767 30.1562 31.4473 14.2857 50.9562 14.2857C60.4205 14.2857 69.3044 17.9687 76.0008 24.6652C82.6749 31.3616 86.6928 40.2455 86.6928 49.7098C86.6928 69.2187 70.4651 85.0893 50.9562 85.0893Z" fill="white"/>
</svg>
