<svg width="635" height="100" viewBox="0 0 635 100" fill="none" xmlns="http://www.w3.org/2000/svg">
<path d="M22.0428 98.6223H0L33.5867 1.33017H60.095L93.6342 98.6223H71.5914L47.2209 23.5629H46.4608L22.0428 98.6223ZM20.6651 60.38H72.7316V76.4371H20.6651V60.38Z"/>
<path d="M175.488 1.33017L195.108 34.4893H195.868L215.583 1.33017H238.814L209.122 49.9762L239.479 98.6223H215.821L195.868 65.4157H195.108L175.156 98.6223H151.593L182.044 49.9762L152.163 1.33017H175.488Z"/>
<path d="M291.812 30.0189L319.253 11.1529V90.0469L310.81 96.9072V30.0189H291.812Z"/>
<path d="M350.125 67.7508L322.683 86.6167V7.72276L331.127 0.862419V67.7508H350.125Z"/>
<path d="M496.009 49.9762C496.009 60.5859 493.998 69.612 489.976 77.0546C485.986 84.4972 480.538 90.1821 473.634 94.1093C466.762 98.0048 459.034 99.9525 450.451 99.9525C441.805 99.9525 434.046 97.9889 427.173 94.0618C420.301 90.1346 414.869 84.4497 410.879 77.0071C406.888 69.5645 404.893 60.5542 404.893 49.9762C404.893 39.3666 406.888 30.3405 410.879 22.8979C414.869 15.4553 420.301 9.78622 427.173 5.89074C434.046 1.96358 441.805 0 450.451 0C459.034 0 466.762 1.96358 473.634 5.89074C480.538 9.78622 485.986 15.4553 489.976 22.8979C493.998 30.3405 496.009 39.3666 496.009 49.9762ZM475.154 49.9762C475.154 43.1037 474.125 37.308 472.066 32.5891C470.04 27.8702 467.173 24.2914 463.468 21.8527C459.762 19.4141 455.424 18.1948 450.451 18.1948C445.479 18.1948 441.14 19.4141 437.435 21.8527C433.729 24.2914 430.847 27.8702 428.789 32.5891C426.762 37.308 425.748 43.1037 425.748 49.9762C425.748 56.8488 426.762 62.6445 428.789 67.3634C430.847 72.0823 433.729 75.6611 437.435 78.0998C441.14 80.5384 445.479 81.7577 450.451 81.7577C455.424 81.7577 459.762 80.5384 463.468 78.0998C467.173 75.6611 470.04 72.0823 472.066 67.3634C474.125 62.6445 475.154 56.8488 475.154 49.9762Z"/>
<path d="M613.74 29.3112C613.36 25.479 611.729 22.502 608.847 20.38C605.965 18.2581 602.054 17.1971 597.113 17.1971C593.756 17.1971 590.921 17.6722 588.609 18.6223C586.298 19.5408 584.524 20.8234 583.289 22.4703C582.085 24.1172 581.484 25.9858 581.484 28.076C581.42 29.8179 581.784 31.3381 582.576 32.6366C583.4 33.9351 584.524 35.0594 585.949 36.0095C587.374 36.928 589.021 37.7355 590.89 38.4323C592.758 39.0974 594.754 39.6675 596.876 40.1425L605.617 42.2328C609.86 43.1829 613.756 44.4497 617.303 46.0333C620.85 47.6168 623.922 49.5645 626.519 51.8765C629.116 54.1884 631.127 56.9121 632.552 60.0475C634.009 63.1829 634.754 66.7775 634.785 70.8314C634.754 76.7854 633.233 81.9477 630.225 86.3183C627.248 90.6572 622.94 94.0301 617.303 96.4371C611.697 98.8124 604.936 100 597.018 100C589.164 100 582.323 98.7965 576.495 96.3895C570.7 93.9826 566.171 90.4196 562.909 85.7007C559.678 80.9501 557.984 75.0752 557.826 68.076H577.731C577.952 71.3381 578.887 74.0618 580.533 76.247C582.212 78.4006 584.445 80.0317 587.232 81.1401C590.051 82.2169 593.233 82.7553 596.78 82.7553C600.264 82.7553 603.289 82.2486 605.854 81.2352C608.451 80.2217 610.462 78.8124 611.887 77.0071C613.313 75.2019 614.025 73.1275 614.025 70.7838C614.025 68.5986 613.376 66.7617 612.077 65.2732C610.811 63.7846 608.942 62.5178 606.472 61.4727C604.033 60.4276 601.04 59.4774 597.493 58.6223L586.899 55.962C578.697 53.9667 572.22 50.8472 567.469 46.6033C562.719 42.3595 560.359 36.6429 560.391 29.4537C560.359 23.5629 561.927 18.4165 565.094 14.0143C568.293 9.61204 572.679 6.17577 578.253 3.70546C583.827 1.23515 590.161 0 597.256 0C604.476 0 610.779 1.23515 616.163 3.70546C621.579 6.17577 625.791 9.61204 628.799 14.0143C631.808 18.4165 633.36 23.5154 633.455 29.3112H613.74Z"/>
</svg>
