<svg width="173" height="100" viewBox="0 0 173 100" fill="none" xmlns="http://www.w3.org/2000/svg">
<path d="M172.613 97.3114C170.105 98.2601 167.336 98.258 164.83 97.3056C162.323 96.3531 160.251 94.5161 159.006 92.1412L134.232 57.881L130.641 53.0914L101.896 92.1843C100.725 94.4596 98.7661 96.2306 96.3845 97.1663C94.003 98.102 91.3622 98.1383 88.9559 97.2684L125.995 47.5764L91.541 2.68855C94.0184 1.79578 96.7277 1.78394 99.2128 2.65503C101.698 3.52612 103.807 5.22692 105.185 7.47104L130.864 42.1548L156.686 7.61466C157.866 5.37986 159.826 3.65645 162.193 2.77205C164.56 1.88765 167.17 1.90394 169.526 2.8178L156.155 20.5618L138.045 44.1368C137.542 44.5854 137.139 45.1353 136.864 45.7503C136.588 46.3654 136.446 47.0317 136.446 47.7057C136.446 48.3797 136.588 49.046 136.864 49.6611C137.139 50.2761 137.542 50.826 138.045 51.2746L172.542 97.3186L172.613 97.3114ZM0.285932 46.9589L3.30192 32.0585C11.5887 2.5952 45.3677 -9.66262 68.6051 8.5769C82.213 19.2693 85.6096 34.4066 84.9417 51.4685H8.28547C7.04317 81.9371 29.0311 100.335 57.1444 90.9348C61.7018 89.2943 65.7812 86.549 69.017 82.9447C72.2528 79.3404 74.5441 74.9898 75.6855 70.2825C77.172 65.5 79.6207 64.6814 84.1159 66.0601C83.3668 71.8938 81.3046 77.4816 78.0845 82.4033C74.8643 87.325 70.57 91.4524 65.5245 94.475C57.1905 99.0336 47.6285 100.84 38.2056 99.6371C28.7828 98.4338 19.9817 94.2819 13.0608 87.7752C6.21758 80.0729 2.08171 70.3435 1.28408 60.0712C1.28408 58.3837 0.709606 56.8039 0.321837 55.2887C0.28688 52.5147 0.270125 49.7404 0.271571 46.9661L0.285932 46.9589ZM8.37882 44.9051H77.7034C77.2725 22.8167 63.3344 7.1479 44.743 7.00428C24.0476 6.71704 9.24053 22.0411 8.32856 44.8046L8.37882 44.9051Z"/>
</svg>
