<svg width="100" height="100" viewBox="0 0 100 100" fill="none" xmlns="http://www.w3.org/2000/svg">
<path d="M22.4531 67.4643C33.2946 68.2031 35.6116 67.9353 35.6116 70.1295C35.6116 74.5937 20.9799 74.6071 20.9799 70.4688C20.9821 69.3326 21.7143 68.3705 22.4531 67.4643ZM28.692 41.4286C21.4844 41.4286 21.1585 51.3549 28.5246 51.3549C35.7812 51.3549 35.6027 41.4286 28.692 41.4286ZM100 10.7143V89.2857C100 92.1273 98.8712 94.8525 96.8619 96.8619C94.8525 98.8712 92.1273 100 89.2857 100H10.7143C7.87268 100 5.14746 98.8712 3.13814 96.8619C1.12882 94.8525 0 92.1273 0 89.2857L0 10.7143C0 7.87268 1.12882 5.14746 3.13814 3.13814C5.14746 1.12882 7.87268 0 10.7143 0H89.2857C92.1273 0 94.8525 1.12882 96.8619 3.13814C98.8712 5.14746 100 7.87268 100 10.7143ZM49.3304 26.1853C49.3304 29.4196 51.2009 31.2924 54.433 31.2924C57.7232 31.2924 59.596 29.4196 59.596 26.1853C59.596 22.9509 57.7277 21.2054 54.4375 21.2054C51.2054 21.2054 49.3304 22.9554 49.3304 26.1853ZM44.4598 36.3839H33.3996C27.8192 34.9219 15.1942 35.3013 15.1942 46.8192C15.1942 51.0156 17.2924 53.962 20.0714 55.3259C16.5692 58.5335 14.9107 60.0446 14.9107 62.1875C14.9107 63.721 15.5335 65.1384 17.4063 65.9286C15.4196 67.8036 14.2812 69.1607 14.2812 71.7143C14.2857 76.1942 18.1987 78.7946 28.4643 78.7946C38.3348 78.7946 44.0603 75.1094 44.0603 68.5871C44.0603 60.4018 37.7589 60.7031 22.9063 59.7969L24.7768 56.7991C28.5714 57.8571 41.3371 58.1897 41.3371 47.3281C41.3371 44.7187 40.2589 42.904 39.2388 41.5982L44.4576 41.2009L44.4598 36.3839ZM63.2857 60.9018L60.3839 60.5045C59.5312 60.3906 59.4754 60.2812 59.4754 59.3683V35.8304H47.7344L47.1116 40.4219C50.6272 41.6607 50.9062 41.5067 50.9062 42.692V59.375C50.9062 60.6295 50.8371 60.3973 47.1116 60.9085V65.3862H63.2768L63.2857 60.9018ZM85.7143 63.1696L84.1808 58.1763C75.0446 61.6071 75.7321 55.4062 75.7321 54.442V40.8884H84.1808V35.2165H76.1853C75.5446 35.2165 75.7388 35.779 75.7388 26.5937H70.3415C69.7188 32.7768 67.7344 35.2723 62.7522 35.8393V40.8884C67.3214 40.8884 67.1763 40.6987 67.1763 41.4554V56.3147C67.1763 62.7254 69.7277 65.4464 76.4777 65.4464C79.7031 65.4464 83.2746 64.3683 85.7143 63.1696Z" />
</svg>
