<svg width="103" height="100" viewBox="0 0 103 100" fill="none" xmlns="http://www.w3.org/2000/svg">
<path d="M34.3047 80.5198C34.3047 80.9334 33.8291 81.2643 33.2294 81.2643C32.5471 81.3263 32.0715 80.9954 32.0715 80.5198C32.0715 80.1063 32.5471 79.7754 33.1467 79.7754C33.7671 79.7134 34.3047 80.0443 34.3047 80.5198ZM27.8738 79.5893C27.7291 80.0029 28.1427 80.4785 28.763 80.6026C29.3006 80.8093 29.921 80.6026 30.045 80.189C30.1691 79.7754 29.7762 79.2999 29.1559 79.1138C28.6183 78.969 28.0186 79.1758 27.8738 79.5893ZM37.0135 79.2378C36.4138 79.3826 36.0003 79.7754 36.0623 80.251C36.1243 80.6646 36.662 80.9334 37.2823 80.7887C37.882 80.6439 38.2955 80.251 38.2335 79.8375C38.1715 79.4446 37.6132 79.1758 37.0135 79.2378ZM50.6196 0C21.9393 0 0 21.7739 0 50.4541C0 73.386 14.4332 93.0093 35.0491 99.9157C37.6959 100.391 38.6264 98.7578 38.6264 97.4137C38.6264 96.1317 38.5643 89.0598 38.5643 84.7175C38.5643 84.7175 24.0898 87.8192 21.0501 78.5554C21.0501 78.5554 18.6928 72.5382 15.3017 70.9873C15.3017 70.9873 10.5664 67.7409 15.6325 67.8029C15.6325 67.8029 20.7813 68.2165 23.6142 73.1378C28.1427 81.1195 35.7315 78.8243 38.6884 77.4595C39.164 74.151 40.5081 71.8558 41.9969 70.4911C30.4379 69.209 18.7756 67.5341 18.7756 47.6419C18.7756 41.9555 20.3471 39.102 23.6556 35.4626C23.1179 34.1186 21.3603 28.5769 24.1932 21.4223C28.5149 20.0783 38.4609 27.0054 38.4609 27.0054C42.5965 25.8474 47.0423 25.2478 51.4467 25.2478C55.8511 25.2478 60.2968 25.8474 64.4324 27.0054C64.4324 27.0054 74.3785 20.0576 78.7002 21.4223C81.5331 28.5976 79.7755 34.1186 79.2378 35.4626C82.5463 39.1226 84.5727 41.9762 84.5727 47.6419C84.5727 67.5961 72.3934 69.1883 60.8345 70.4911C62.7368 72.1246 64.3497 75.2263 64.3497 80.0856C64.3497 87.0541 64.2877 95.6768 64.2877 97.3724C64.2877 98.7164 65.2389 100.35 67.865 99.8744C88.5429 93.0093 102.563 73.386 102.563 50.4541C102.563 21.7739 79.2999 0 50.6196 0ZM20.0989 71.3182C19.8301 71.5249 19.8922 72.0005 20.2437 72.3934C20.5745 72.7243 21.0501 72.869 21.3189 72.6002C21.5878 72.3934 21.5257 71.9178 21.1742 71.5249C20.8434 71.1941 20.3678 71.0494 20.0989 71.3182ZM17.8657 69.6433C17.721 69.9121 17.9278 70.2429 18.3413 70.4497C18.6722 70.6565 19.0857 70.5944 19.2305 70.305C19.3752 70.0361 19.1684 69.7053 18.7549 69.4985C18.3413 69.3744 18.0105 69.4365 17.8657 69.6433ZM24.5654 77.0046C24.2345 77.2734 24.3586 77.8938 24.8342 78.2866C25.3098 78.7622 25.9094 78.8243 26.1783 78.4934C26.4471 78.2246 26.323 77.6043 25.9094 77.2114C25.4545 76.7358 24.8342 76.6738 24.5654 77.0046ZM22.2081 73.9649C21.8772 74.1717 21.8772 74.7094 22.2081 75.1849C22.5389 75.6605 23.0972 75.8673 23.3661 75.6605C23.6969 75.3917 23.6969 74.8541 23.3661 74.3785C23.0766 73.9029 22.5389 73.6961 22.2081 73.9649Z" />
</svg>
