<svg width="101" height="100" viewBox="0 0 101 100" fill="none" xmlns="http://www.w3.org/2000/svg">
<path d="M89.7134 0H11.142C5.22684 0 0.427734 4.79911 0.427734 10.7143V89.2857C0.427734 95.2009 5.22684 100 11.142 100H89.7134C95.6286 100 100.428 95.2009 100.428 89.2857V10.7143C100.428 4.79911 95.6286 0 89.7134 0ZM54.8474 77.9911C54.8474 87.7232 49.1331 92.1652 40.8072 92.1652C33.2849 92.1652 28.9322 88.2812 26.7001 83.5714L34.3563 78.9509C35.8295 81.5625 37.1688 83.7723 40.4054 83.7723C43.4858 83.7723 45.4501 82.567 45.4501 77.8571V45.9152H54.8474V77.9911ZM77.0795 92.1652C68.3518 92.1652 62.7045 88.0134 59.959 82.567L67.6152 78.1473C69.6242 81.4286 72.2581 83.8616 76.8786 83.8616C80.7626 83.8616 83.2626 81.9196 83.2626 79.2187C83.2626 76.0045 80.7179 74.8661 76.4099 72.9687L74.0661 71.9643C67.2804 69.0848 62.7938 65.4464 62.7938 57.7902C62.7938 50.7366 68.1733 45.3795 76.5438 45.3795C82.5259 45.3795 86.8117 47.4554 89.892 52.9018L82.5706 57.5893C80.9634 54.7098 79.2224 53.5714 76.5215 53.5714C73.7759 53.5714 72.0349 55.3125 72.0349 57.5893C72.0349 60.4018 73.776 61.5402 77.8161 63.3036L80.1599 64.308C88.151 67.7232 92.6376 71.2277 92.6376 79.0848C92.6376 87.5223 85.9858 92.1652 77.0795 92.1652Z" />
</svg>
