<svg width="98" height="100" viewBox="0 0 98 100" fill="none" xmlns="http://www.w3.org/2000/svg">
<path d="M69.8782 0C65.9873 0.0343771 62.1308 0.587537 58.3868 1.6751L58.1274 1.75948C55.7804 1.35008 53.3896 1.12507 51.0145 1.07507C46.0986 0.990686 41.8795 2.17826 38.4793 4.16588C35.126 3.01269 28.1756 0.990686 20.8501 1.40009C15.7592 1.6751 10.1901 3.22207 6.05232 7.58485C1.95206 11.932 -0.226196 18.6699 0.226957 27.8517C0.35509 30.3738 1.07388 34.4896 2.27708 39.8431C3.46466 45.1841 5.14289 51.4344 7.24302 57.1473C9.34315 62.8445 11.6339 67.9698 15.2185 71.4513C17.0061 73.192 19.4813 74.6765 22.394 74.5484C24.4316 74.464 26.2692 73.5702 27.8662 72.2514C28.6443 73.2764 29.4788 73.7139 30.2257 74.1233C31.1883 74.6453 32.0977 75.0015 33.0602 75.2328C34.7853 75.6703 37.7324 76.2422 41.1826 75.6547C42.3546 75.4578 43.5921 75.0703 44.8297 74.5328C44.8797 75.8985 44.9297 77.2485 44.9766 78.6174C45.1547 82.9301 45.2735 86.9179 46.5548 90.4181C46.7673 90.99 47.3393 93.9183 49.5831 96.5216C51.8458 99.1249 56.2367 100.737 61.2682 99.6624C64.8028 98.9124 69.3094 97.5467 72.3064 93.2839C75.2691 89.0837 76.6036 83.0458 76.8661 73.2452C76.9286 72.7076 77.013 72.2701 77.0911 71.8451L77.7911 71.9107H77.8755C81.6508 72.0732 85.7541 71.5357 89.1887 69.9387C92.2139 68.5386 94.5109 67.1229 96.186 64.6009C96.5954 63.979 97.0642 63.2164 97.183 61.9132C97.3111 60.6288 96.5611 58.5911 95.3235 57.6505C92.8515 55.7628 91.2889 56.4785 89.6106 56.8379C87.9699 57.1973 86.2885 57.3879 84.6134 57.4379C89.4294 49.3343 92.8796 40.7088 94.8516 33.0864C96.0235 28.5768 96.6767 24.4265 96.7236 20.7982C96.7892 17.1698 96.4829 13.9634 94.314 11.1819C87.5105 2.50641 77.9537 0.0937558 70.5657 0.015626C70.3376 0.015626 70.1125 0.015626 69.8813 0.015626L69.8782 0ZM69.6813 2.67204C76.6661 2.60641 85.5979 4.55966 92.0108 12.7602C93.4609 14.6009 93.8859 17.2854 93.8359 20.6075C93.7859 23.9296 93.1702 27.883 92.0451 32.2301C89.8825 40.665 85.7604 50.4594 79.985 59.2693C80.1819 59.4162 80.4069 59.5443 80.6351 59.6287C81.8383 60.1319 84.5884 60.5538 90.0888 59.4318C91.4732 59.1349 92.4858 58.9443 93.5421 59.7412C94.064 60.1787 94.339 60.8319 94.3047 61.5163C94.2422 62.0195 94.064 62.507 93.7515 62.9164C92.6921 64.5071 90.5982 66.026 87.9105 67.2792C85.5354 68.3824 82.1133 68.9543 79.1068 68.9887C77.5786 69.0043 76.1785 68.8886 74.9847 68.5136L74.9222 68.5011C74.4628 72.9108 73.4096 81.6363 72.7221 85.6053C72.172 88.8086 71.2095 91.3682 69.3719 93.2714C67.5311 95.1934 64.9435 96.331 61.4433 97.081C57.1149 98.0092 53.9709 97.0154 51.9395 95.3059C49.9082 93.5964 48.9769 91.3182 48.4237 89.9337C48.0362 88.9743 47.8393 87.7367 47.6455 86.0741C47.4486 84.4146 47.3205 82.3957 47.2205 80.1018C47.0924 76.6016 47.0424 73.1014 47.0924 69.5856C45.2891 71.2482 43.0421 72.3357 40.6295 72.7608C37.7512 73.2483 35.1948 72.7608 33.6665 72.3857C32.9165 72.1889 32.1821 71.9138 31.5008 71.5388C30.7851 71.1638 30.1163 70.7419 29.6632 69.8918C29.4006 69.4043 29.3225 68.8386 29.435 68.3011C29.5632 67.748 29.8882 67.276 30.332 66.9167C31.1601 66.2447 32.2539 65.876 33.8947 65.5322C36.8917 64.9103 37.948 64.4915 38.5825 63.9821C39.12 63.5602 39.7419 62.682 40.8107 61.3944C40.8107 61.3476 40.8107 61.2819 40.7951 61.2319C38.8606 61.1694 36.9699 60.6663 35.2604 59.735C34.6447 60.385 31.4351 63.7727 27.5474 68.4605C25.9192 70.4106 24.1128 71.5357 22.1939 71.6201C20.2907 71.6982 18.5593 70.7419 17.0968 69.323C14.1684 66.4729 11.8214 61.5726 9.78693 56.0378C7.75242 50.5031 6.10857 44.3371 4.921 39.0962C3.74905 33.8365 3.04901 29.605 2.949 27.5705C2.51147 18.8949 4.54598 13.0539 8.02744 9.35683C11.5089 5.65973 16.2811 4.27839 20.9376 4.00337C29.2881 3.53147 37.2293 6.44415 38.8262 7.06294C41.917 4.96281 45.9048 3.66273 50.8863 3.74086C53.249 3.77523 55.5898 4.0815 57.8868 4.65341L57.9712 4.60341C58.9806 4.26276 60.0057 3.95337 61.0464 3.72836C63.8809 3.05644 66.7748 2.71579 69.6719 2.66892L69.6813 2.67204ZM70.3157 5.45346H69.7C67.3249 5.48159 64.9278 5.76286 62.6027 6.26601C67.7936 8.56303 71.7158 12.0914 74.4816 15.6416C76.4036 18.0824 77.9818 20.7669 79.185 23.6327C79.66 24.7422 79.9694 25.6672 80.1319 26.3829C80.2288 26.7423 80.2788 27.0486 80.31 27.3579C80.31 27.5205 80.3257 27.6861 80.2444 27.9611C80.2444 27.9767 80.2288 28.0111 80.2288 28.0267C80.3632 31.6738 79.4506 34.1427 79.3319 37.6273C79.2537 40.1525 79.9038 43.1152 80.0663 46.3529C80.2132 49.3937 79.8413 52.7314 77.8693 56.0191C78.0318 56.216 78.1787 56.4097 78.3412 56.6223C83.5665 48.3843 87.3417 39.2868 89.345 31.5207C90.4201 27.3361 90.9857 23.5452 91.0357 20.5544C91.0857 17.5573 90.5326 15.376 89.8138 14.4665C84.2134 7.3192 76.6473 5.49409 70.3126 5.45034L70.3157 5.45346ZM50.3426 6.5254C45.4298 6.54103 41.8952 8.0255 39.2138 10.2538C36.4417 12.5664 34.5885 15.7072 33.3853 18.9449C31.9352 22.7702 31.432 26.4798 31.2351 29.0049L31.3008 28.9705C32.7852 28.1424 34.7353 27.2954 36.8355 26.8235C38.92 26.3329 41.1826 26.186 43.214 26.986C45.2673 27.7642 46.9424 29.6362 47.5611 32.452C50.4957 46.0279 46.6517 51.075 45.236 54.8815C44.6985 56.266 44.2266 57.6661 43.8515 59.0974C44.0297 59.063 44.2109 59.013 44.3891 58.9974C45.3985 58.9193 46.1767 59.2443 46.6361 59.4381C48.0706 60.0381 49.0456 61.2757 49.5831 62.6914C49.7113 63.0664 49.8082 63.4539 49.8738 63.879C49.9238 64.0415 49.9582 64.2196 49.9582 64.4009C49.7957 69.5918 49.8082 74.7859 50.005 79.9768C50.105 82.2238 50.2519 84.1927 50.4301 85.7553C50.6082 87.3023 50.852 88.4899 51.0176 88.8961C51.552 90.2306 52.3333 91.9713 53.7522 93.1589C55.1522 94.3496 57.168 95.1309 60.8651 94.3496C64.0684 93.6496 66.0404 92.7026 67.3561 91.3369C68.6781 89.9525 69.4563 88.0492 69.9594 85.1365C70.7251 80.7581 72.2377 68.0605 72.4189 65.6853C72.3408 63.8758 72.5971 62.4945 73.1846 61.4351C73.769 60.36 74.6816 59.6943 75.4816 59.3349C75.8691 59.1568 76.2442 59.0443 76.5536 58.9443C76.2285 58.4911 75.8879 58.0349 75.5441 57.5942C74.4066 56.2097 73.4596 54.6659 72.7596 53.022C72.4346 52.3345 72.0752 51.6501 71.6845 51C71.1345 50.0094 70.4344 48.753 69.7 47.3373C68.2343 44.5371 66.6405 41.1213 65.8092 37.7992C64.981 34.4771 64.8685 31.0457 66.9842 28.6362C68.8562 26.486 72.1595 25.5953 77.088 26.0985C76.9411 25.6578 76.863 25.2828 76.6161 24.714C75.4941 22.0764 74.0284 19.6012 72.2689 17.3542C68.0843 12.0007 61.2964 6.69104 50.8332 6.5129L50.3426 6.5254ZM22.6752 6.73792C22.1533 6.73792 21.6158 6.75354 21.097 6.78792C16.8811 7.03481 12.909 8.25051 10.0588 11.2632C7.21177 14.2915 5.3429 19.2231 5.74605 27.4111C5.83043 28.9737 6.4961 33.3021 7.64929 38.4618C8.80874 43.6246 10.4495 49.6968 12.4215 55.0659C14.3872 60.4194 16.7686 65.0915 19.0469 67.3042C20.1844 68.3949 21.1751 68.8511 22.0721 68.8199C22.969 68.7699 24.0597 68.248 25.3941 66.6541C27.8193 63.7258 30.3288 60.8913 32.9321 58.1255C29.185 54.8534 27.3474 49.9093 28.0818 44.9903C28.5037 41.9151 28.5693 39.0305 28.5037 36.7523C28.4568 34.5396 28.3068 33.0771 28.3068 32.1489C28.3068 32.1145 28.3068 32.0989 28.3068 32.0645V32.0489L28.2912 32.0207C28.2912 27.2173 29.1413 22.467 30.7664 17.9574C31.9383 14.8447 33.6665 11.707 36.2667 9.14744C33.7134 8.30051 29.1694 7.03481 24.2566 6.78792C23.7347 6.75354 23.194 6.73792 22.6752 6.73792ZM74.3347 28.7424C71.5064 28.7924 69.925 29.5268 69.0812 30.4675C67.9062 31.8207 67.7936 34.1959 68.5281 37.1273C69.2562 40.0556 70.7751 43.3277 72.1908 46.0497C72.8908 47.4154 73.5753 48.6374 74.1253 49.6281C74.6972 50.6375 75.1035 51.3376 75.3472 51.9563C75.5754 52.5095 75.8379 52.997 76.0973 53.4533C77.188 51.1407 77.3849 48.878 77.2692 46.5029C77.1224 43.5746 76.4411 40.5775 76.5536 37.5523C76.6692 34.0021 77.3692 31.6895 77.4192 28.9549C76.4067 28.8268 75.366 28.7424 74.3409 28.7424H74.3347ZM40.0263 29.2362C39.1637 29.2362 38.3012 29.3487 37.4543 29.5456C35.776 29.955 34.1666 30.5706 32.6508 31.4176C32.1477 31.6926 31.6602 32.0051 31.2039 32.3645L31.1039 32.4426C31.1382 33.0645 31.2508 34.5271 31.3008 36.7085C31.3508 39.0837 31.3008 42.1089 30.8476 45.3841C29.8382 52.5126 35.0135 58.4067 41.0857 58.4224C41.4451 56.9567 42.0264 55.4722 42.614 53.9127C44.3047 49.3531 47.6268 46.0341 44.8266 33.0458C44.3734 30.93 43.4609 30.0675 42.2046 29.58C41.5045 29.3331 40.7763 29.2206 40.0263 29.2393V29.2362ZM73.019 30.08H73.2315C73.4909 30.0956 73.7534 30.1144 73.9784 30.1769C74.1909 30.2269 74.3878 30.2925 74.5503 30.405C74.7128 30.5019 74.8253 30.6644 74.8597 30.8582V30.8925C74.8597 31.0894 74.8097 31.2832 74.7128 31.4645C74.5847 31.6895 74.4378 31.902 74.2597 32.0801C73.8346 32.552 73.2627 32.8645 72.6471 32.9583C72.0439 33.0427 71.4439 32.8802 70.9376 32.5364C70.7407 32.3864 70.5469 32.2239 70.4001 32.0457C70.2532 31.8989 70.1719 31.7051 70.1375 31.5082C70.125 31.3176 70.1719 31.1207 70.3001 30.9738C70.4501 30.8238 70.6126 30.6957 70.7907 30.5988C71.1939 30.3706 71.7314 30.2081 72.3533 30.1237C72.5783 30.0956 72.8065 30.0769 73.019 30.0612V30.08ZM40.4295 30.78C40.642 30.78 40.8889 30.7957 41.117 30.8269C41.767 30.9269 42.3202 31.0894 42.7577 31.3488C42.9702 31.4488 43.1671 31.6113 43.3109 31.7895C43.4734 31.9864 43.5515 32.227 43.539 32.4895C43.489 32.7302 43.389 32.9614 43.2265 33.1396C43.0484 33.3521 42.8546 33.5302 42.6265 33.6771C42.0889 34.0677 41.4233 34.2302 40.7545 34.149C40.0826 34.0365 39.4669 33.7115 39.0137 33.2083C38.8169 32.9958 38.6543 32.7677 38.5231 32.5239C38.3762 32.2958 38.3137 32.0364 38.3449 31.7738C38.4106 31.3363 38.7856 31.0894 39.145 30.9613C39.5544 30.8269 39.9919 30.7832 40.4295 30.7988V30.78ZM78.1787 61.3788H78.163C77.563 61.6069 77.0598 61.6913 76.6348 61.8882C76.1973 62.0507 75.8504 62.3757 75.6441 62.7789C75.366 63.2539 75.1566 64.1008 75.2191 65.5447C75.3972 65.6791 75.6098 65.7728 75.841 65.8416C76.5411 66.0541 77.7443 66.201 79.0787 66.1822C81.732 66.1479 85.0041 65.5322 86.7448 64.7165C88.1605 64.0665 89.495 63.1883 90.6669 62.1632C84.8572 63.3508 81.5883 63.0414 79.5663 62.2132C79.0787 62.0007 78.6037 61.7226 78.1787 61.3788ZM44.7141 61.7695H44.6297C44.4047 61.7851 44.0922 61.8695 43.4578 62.5539C42.0077 64.179 41.5045 65.204 40.3169 66.151C39.1137 67.1104 37.5668 67.6167 34.4572 68.2511C33.4821 68.448 32.9102 68.673 32.5352 68.8511C32.6477 68.9512 32.6477 68.9855 32.8259 69.0637C33.2853 69.3262 33.8665 69.5387 34.3416 69.6668C35.676 69.9918 37.8543 70.3825 40.1513 69.9918C42.4296 69.6012 44.8047 68.5074 46.8423 65.6634C47.2017 65.1759 47.2299 64.4415 46.9392 63.6602C46.6486 62.8977 46.011 62.2132 45.5735 62.0351C45.2954 61.9007 45.0016 61.8226 44.711 61.7726L44.7141 61.7695Z" />
</svg>
