<svg width="115" height="100" viewBox="0 0 115 100" fill="none" xmlns="http://www.w3.org/2000/svg">
<path d="M93.4448 32.4062C92.2395 32.0044 91.0342 31.625 89.8289 31.2679C90.0298 30.442 90.2084 29.6162 90.3869 28.7903C93.1323 15.4875 91.3244 4.79606 85.2309 1.26946C79.3607 -2.10089 69.7853 1.40338 60.0984 9.84043C59.1386 10.6663 58.2011 11.5368 57.3083 12.4073C56.7057 11.8269 56.0807 11.2466 55.4557 10.6886C45.3 1.67123 35.122 -2.12321 29.0286 1.4257C23.1807 4.81838 21.4397 14.8848 23.8949 27.4734C24.1405 28.7234 24.4083 29.951 24.7208 31.2009C23.2923 31.6027 21.8861 32.0491 20.5692 32.5178C8.65021 36.647 0.101562 43.1645 0.101562 49.9053C0.101562 56.8692 9.20822 63.8554 21.596 68.0962C22.6004 68.4311 23.6048 68.7659 24.6315 69.056C24.2967 70.3952 24.0065 71.7121 23.7387 73.0737C21.3951 85.4614 23.2253 95.2823 29.0732 98.6527C35.0997 102.135 45.2331 98.5634 55.0986 89.9254C55.8798 89.2335 56.661 88.5193 57.4422 87.7604C58.4243 88.7201 59.4511 89.6353 60.4778 90.5281C70.0309 98.7419 79.4723 102.068 85.2979 98.6973C91.3244 95.2153 93.2886 84.6579 90.744 71.8014C90.5432 70.8193 90.32 69.8149 90.0744 68.7882C90.7887 68.5873 91.4806 68.3641 92.1725 68.1409C105.051 63.8777 114.381 56.9808 114.381 49.9053C114.381 43.1422 105.587 36.5801 93.4448 32.4062ZM63.2455 13.4563C71.5486 6.22456 79.2938 3.38988 82.8204 5.42103C86.5925 7.58609 88.0433 16.3356 85.6773 27.8305C85.5211 28.5894 85.3649 29.326 85.164 30.0626C80.2089 28.9466 75.1868 28.143 70.1425 27.6966C67.2408 23.5451 64.0714 19.5721 60.634 15.8446C61.5045 15.0187 62.3527 14.2375 63.2455 13.4563ZM37.421 61.4895C38.5593 63.4313 39.72 65.3732 40.9476 67.2704C37.4656 66.891 34.006 66.3329 30.591 65.5964C31.5731 62.3823 32.8007 59.0566 34.2292 55.6639C35.2559 57.6281 36.305 59.5699 37.421 61.4895ZM30.658 34.6382C33.8721 33.924 37.2871 33.3436 40.836 32.8972C39.653 34.7498 38.4924 36.647 37.3987 38.5666C36.305 40.4638 35.2336 42.4057 34.2292 44.3698C32.823 41.0441 31.6401 37.7854 30.658 34.6382ZM36.7737 50.0169C38.2468 46.9367 39.8539 43.9234 41.5502 40.9548C43.2466 37.9862 45.0768 35.1069 46.9964 32.2723C50.3444 32.0267 53.7594 31.8928 57.2414 31.8928C60.7233 31.8928 64.1606 32.0267 67.4864 32.2723C69.3836 35.0846 71.1915 37.9639 72.9102 40.9102C74.6288 43.8565 76.2359 46.8697 77.7537 49.9276C76.2582 53.0078 74.6511 56.0433 72.9325 59.0342C71.2362 62.0028 69.4282 64.8821 67.531 67.7391C64.2053 67.9846 60.7456 68.0962 57.2414 68.0962C53.7371 68.0962 50.3444 67.9846 47.0633 67.7838C45.1215 64.9491 43.2912 62.0475 41.5726 59.0789C39.8539 56.1103 38.2692 53.0971 36.7737 50.0169ZM77.0841 61.4448C78.2224 59.4806 79.2938 57.4941 80.3428 55.4853C81.7713 58.7218 83.0212 62.0028 84.1149 65.3732C80.6553 66.1544 77.151 66.757 73.6244 67.1588C74.8297 65.2839 75.968 63.3644 77.0841 61.4448ZM80.2982 44.3698C79.2491 42.4057 78.1777 40.4415 77.0617 38.5219C75.968 36.6247 74.8297 34.7498 73.6467 32.8972C77.2403 33.3436 80.6776 33.9463 83.8917 34.6829C82.865 37.9862 81.6597 41.2004 80.2982 44.3698ZM57.286 19.2596C59.6296 21.8041 61.8393 24.4825 63.8928 27.2502C59.4734 27.0493 55.0317 27.0493 50.6123 27.2502C52.7996 24.3709 55.054 21.6925 57.286 19.2596ZM31.3945 5.57727C35.1443 3.38988 43.4698 6.51472 52.2416 14.2822C52.7996 14.7732 53.3576 15.3089 53.938 15.8446C50.4783 19.5721 47.2865 23.5451 44.3626 27.6966C39.3182 28.143 34.3185 28.9242 29.3634 30.0179C29.0732 28.8796 28.8277 27.7189 28.5822 26.5583C26.4841 15.7553 27.8679 7.60841 31.3945 5.57727ZM25.9261 64.4134C24.9886 64.1456 24.0735 63.8554 23.1584 63.5429C18.4042 62.0475 13.0027 59.6815 9.09662 56.579C6.84227 55.0166 5.3245 52.606 4.90041 49.9053C4.90041 45.8207 11.9536 40.5977 22.1316 37.0488C23.4039 36.6024 24.6985 36.2006 25.993 35.8212C27.5108 40.6647 29.3411 45.4189 31.4615 50.0169C29.3188 54.6818 27.4662 59.503 25.9261 64.4134ZM51.9515 86.2872C48.2686 89.6576 44.0055 92.336 39.3629 94.1663C36.8853 95.3493 34.0283 95.4609 31.4838 94.4564C27.9349 92.403 26.4618 84.5239 28.4706 73.9218C28.7161 72.6719 28.9839 71.422 29.2964 70.1944C34.2962 71.2657 39.3405 72.0023 44.4519 72.3817C47.3981 76.5556 50.6346 80.5509 54.0942 84.3007C53.38 84.9927 52.6657 85.6623 51.9515 86.2872ZM57.4199 80.8634C55.1433 78.4082 52.8666 75.6851 50.6569 72.7612C52.7996 72.8505 55.0093 72.8951 57.2414 72.8951C59.5404 72.8951 61.7947 72.8505 64.0267 72.7389C61.9733 75.5735 59.7636 78.2743 57.4199 80.8634ZM86.5925 87.5595C86.3916 90.2826 85.0524 92.8271 82.9096 94.5457C79.3607 96.5992 71.7942 93.9208 63.625 86.9122C62.6875 86.1087 61.7501 85.2382 60.7903 84.3454C64.2053 80.5733 67.3524 76.5779 70.2094 72.3817C75.3208 71.9576 80.4098 71.1764 85.4318 70.0381C85.655 70.9532 85.8559 71.8684 86.0345 72.7612C87.1282 77.5823 87.3067 82.6044 86.5925 87.5595ZM90.6548 63.5652C90.0298 63.7661 89.4048 63.967 88.7575 64.1456C87.1951 59.2798 85.2756 54.5255 83.0659 49.9053C85.2086 45.3519 87.0166 40.6647 88.5343 35.8658C89.695 36.2006 90.811 36.5578 91.8824 36.9149C102.284 40.4861 109.582 45.7983 109.582 49.8606C109.582 54.2354 101.793 59.8824 90.6548 63.5652ZM57.2414 60.2172C62.8884 60.2172 67.464 55.6416 67.464 49.9945C67.464 44.3475 62.8884 39.7719 57.2414 39.7719C51.5943 39.7719 47.0187 44.3475 47.0187 49.9945C47.0187 55.6416 51.5943 60.2172 57.2414 60.2172Z"/>
</svg>
