<svg width="157" height="100" viewBox="0 0 157 100" fill="none" xmlns="http://www.w3.org/2000/svg">
<path d="M122.836 66.6667V0H111.724V77.7778H156.169V66.6667H122.836Z" />
<path d="M89.5022 0H67.2799C64.3331 0 61.5069 1.17063 59.4232 3.25437C57.3395 5.33811 56.1688 8.16426 56.1688 11.1111V66.6667C56.1688 69.6135 57.3395 72.4397 59.4232 74.5234C61.5069 76.6071 64.3331 77.7778 67.2799 77.7778H72.8355V88.8889C72.8355 91.8357 74.0061 94.6619 76.0899 96.7456C78.1736 98.8294 80.9998 100 83.9466 100H95.0577V88.8889H83.9466V77.7778H89.5022C92.449 77.7778 95.2752 76.6071 97.3589 74.5234C99.4426 72.4397 100.613 69.6135 100.613 66.6667V11.1111C100.613 8.16426 99.4426 5.33811 97.3589 3.25437C95.2752 1.17063 92.449 0 89.5022 0ZM67.2799 66.6667V11.1111H89.5022V66.6667H67.2799Z" />
<path d="M33.9466 77.7778H0.613281V66.6667H33.9466V44.4444H11.7244C8.77754 44.4444 5.95139 43.2738 3.86765 41.1901C1.78391 39.1063 0.613281 36.2802 0.613281 33.3333V11.1111C0.613281 8.16426 1.78391 5.33811 3.86765 3.25437C5.95139 1.17063 8.77754 0 11.7244 0H45.0577V11.1111H11.7244V33.3333H33.9466C36.8935 33.3333 39.7196 34.504 41.8034 36.5877C43.8871 38.6714 45.0577 41.4976 45.0577 44.4444V66.6667C45.0577 69.6135 43.8871 72.4397 41.8034 74.5234C39.7196 76.6071 36.8935 77.7778 33.9466 77.7778Z" />
</svg>
