<svg width="893" height="227" viewBox="0 0 893 227" fill="none" xmlns="http://www.w3.org/2000/svg">
<path d="M55.049 72.2076C54.795 65.0013 53.6045 59.3803 51.4775 55.3448C49.3822 51.3092 46.1917 49.2914 41.9058 49.2914C39.1756 49.2914 36.9374 50.0481 35.1914 51.5614C33.477 53.0027 32.2072 54.9844 31.3818 57.5067C30.5563 60.0289 30.1278 62.9114 30.096 66.1543C30.0325 68.8206 30.2389 71.2348 30.7151 73.3967C31.223 75.4865 32.0167 77.3962 33.0961 79.1257C34.1755 80.7832 35.5565 82.2965 37.239 83.6657C38.9216 85.0349 40.9217 86.26 43.2392 87.341L51.2394 91.2324C56.6364 93.8267 61.2555 97.2497 65.0969 101.501C68.9383 105.753 72.0812 110.762 74.5257 116.527C76.9702 122.22 78.7639 128.633 79.9068 135.768C81.0814 142.902 81.6846 150.685 81.7164 159.116C81.6846 173.673 80.0814 185.996 76.9067 196.085C73.732 206.174 69.1922 213.848 63.2873 219.109C57.4142 224.37 50.3505 227 42.0963 227C33.6199 227 26.2229 224.153 19.9053 218.46C13.6194 212.767 8.73038 204.012 5.23823 192.193C1.77782 180.303 0.0317468 165.097 0 146.577H25.1435C25.3022 153.351 26.0483 159.044 27.3817 163.656C28.715 168.268 30.5881 171.763 33.0008 174.141C35.4453 176.52 38.3502 177.709 41.7154 177.709C44.5408 177.709 46.906 176.916 48.8108 175.33C50.7156 173.745 52.1601 171.547 53.1442 168.737C54.1284 165.926 54.6363 162.719 54.6681 159.116C54.6363 155.729 54.1442 152.775 53.1918 150.252C52.2712 147.658 50.7473 145.352 48.6203 143.334C46.4933 141.244 43.6202 139.299 40.001 137.497L30.2865 132.741C21.6513 128.489 14.8416 121.391 9.85739 111.446C4.90489 101.429 2.44451 87.7733 2.47625 70.4781C2.44451 56.4257 4.09534 44.1389 7.42876 33.6176C10.7939 23.0243 15.4448 14.773 21.3815 8.86381C27.3499 2.9546 34.1914 0 41.9058 0C49.779 0 56.5887 2.99063 62.3349 8.97191C68.0811 14.9532 72.5098 23.3846 75.621 34.2662C78.7639 45.0757 80.3513 57.7229 80.383 72.2076H55.049Z"/>
<path d="M161.573 3.02667H188.05V144.848C188.05 161.71 186.272 176.303 182.716 188.626C179.192 200.877 174.271 210.353 167.954 217.055C161.636 223.685 154.303 227 145.953 227C137.54 227 130.175 223.685 123.857 217.055C117.54 210.353 112.619 200.877 109.095 188.626C105.603 176.303 103.857 161.71 103.857 144.848V3.02667H130.334V139.659C130.334 146.505 131 152.63 132.334 158.035C133.667 163.368 135.509 167.548 137.858 170.574C140.239 173.601 142.937 175.114 145.953 175.114C149.001 175.114 151.699 173.601 154.049 170.574C156.398 167.548 158.239 163.368 159.573 158.035C160.906 152.63 161.573 146.505 161.573 139.659V3.02667Z"/>
<path d="M212.702 224.406V3.02667H254.798C262.037 3.02667 268.37 6.26953 273.799 12.7552C279.228 19.241 283.45 28.357 286.466 40.1033C289.482 51.8497 290.99 65.5778 290.99 81.2876C290.99 97.1416 289.434 110.87 286.323 122.472C283.244 134.074 278.91 143.01 273.323 149.28C267.767 155.549 261.275 158.684 253.846 158.684H228.702V111.987H248.513C251.624 111.987 254.275 110.762 256.465 108.311C258.687 105.789 260.386 102.222 261.561 97.61C262.767 92.9979 263.37 87.5571 263.37 81.2876C263.37 74.946 262.767 69.5413 261.561 65.0733C260.386 60.5333 258.687 57.0743 256.465 54.6962C254.275 52.246 251.624 51.0209 248.513 51.0209H239.179V224.406H212.702Z"/>
<path d="M312.773 224.406V3.02667H383.061V51.4533H339.25V89.5029H379.442V137.93H339.25V175.979H382.87V224.406H312.773Z"/>
<path d="M408.261 224.406V3.02667H450.357C457.595 3.02667 463.929 6.0173 469.358 11.9986C474.786 17.9798 479.009 26.5914 482.025 37.8333C485.041 49.0752 486.549 62.5511 486.549 78.261C486.549 94.1149 484.993 107.483 481.882 118.364C478.802 129.246 474.469 137.461 468.882 143.01C463.326 148.559 456.834 151.333 449.405 151.333H424.261V104.636H444.071C447.183 104.636 449.833 103.771 452.024 102.042C454.246 100.24 455.945 97.3938 457.119 93.5024C458.326 89.611 458.929 84.5305 458.929 78.261C458.929 71.9194 458.326 66.7668 457.119 62.8033C455.945 58.7678 454.246 55.8132 452.024 53.9395C449.833 51.9938 447.183 51.0209 444.071 51.0209H434.738V224.406H408.261ZM465.405 122.796L489.787 224.406H461.024L437.214 122.796H465.405Z"/>
<path d="M507.237 51.4533V3.02667H592.001V51.4533H562.667V224.406H536.571V51.4533H507.237Z"/>
<path d="M614.034 224.406V3.02667H684.322V51.4533H640.511V89.5029H680.703V137.93H640.511V175.979H684.131V224.406H614.034Z"/>
<path d="M762.095 72.2076C761.841 65.0013 760.65 59.3803 758.523 55.3448C756.428 51.3092 753.237 49.2914 748.952 49.2914C746.221 49.2914 743.983 50.0481 742.237 51.5614C740.523 53.0027 739.253 54.9844 738.427 57.5067C737.602 60.0289 737.173 62.9114 737.142 66.1543C737.078 68.8206 737.285 71.2348 737.761 73.3967C738.269 75.4865 739.062 77.3962 740.142 79.1257C741.221 80.7832 742.602 82.2965 744.285 83.6657C745.967 85.0349 747.967 86.26 750.285 87.341L758.285 91.2324C763.682 93.8267 768.301 97.2497 772.143 101.501C775.984 105.753 779.127 110.762 781.571 116.527C784.016 122.22 785.81 128.633 786.953 135.768C788.127 142.902 788.73 150.685 788.762 159.116C788.73 173.673 787.127 185.996 783.952 196.085C780.778 206.174 776.238 213.848 770.333 219.109C764.46 224.37 757.396 227 749.142 227C740.666 227 733.269 224.153 726.951 218.46C720.665 212.767 715.776 204.012 712.284 192.193C708.824 180.303 707.077 165.097 707.046 146.577H732.189C732.348 153.351 733.094 159.044 734.427 163.656C735.761 168.268 737.634 171.763 740.047 174.141C742.491 176.52 745.396 177.709 748.761 177.709C751.587 177.709 753.952 176.916 755.856 175.33C757.761 173.745 759.206 171.547 760.19 168.737C761.174 165.926 761.682 162.719 761.714 159.116C761.682 155.729 761.19 152.775 760.238 150.252C759.317 147.658 757.793 145.352 755.666 143.334C753.539 141.244 750.666 139.299 747.047 137.497L737.332 132.741C728.697 128.489 721.887 121.391 716.903 111.446C711.951 101.429 709.49 87.7733 709.522 70.4781C709.49 56.4257 711.141 44.1389 714.474 33.6176C717.84 23.0243 722.491 14.773 728.427 8.86381C734.396 2.9546 741.237 0 748.952 0C756.825 0 763.634 2.99063 769.381 8.97191C775.127 14.9532 779.556 23.3846 782.667 34.2662C785.81 45.0757 787.397 57.7229 787.429 72.2076H762.095Z"/>
<path d="M808.236 51.4533V3.02667H893V51.4533H863.666V224.406H837.57V51.4533H808.236Z"/>
</svg>
