<svg width="894" height="101" viewBox="0 0 894 101" fill="none" xmlns="http://www.w3.org/2000/svg">
<path d="M55.155 32.0581C54.9011 28.8835 53.7106 26.4073 51.5836 24.6295C49.4884 22.8517 46.2979 21.9628 42.0122 21.9628C39.282 21.9628 37.0439 22.2962 35.2979 22.9628C33.5836 23.5977 32.3138 24.4708 31.4884 25.5819C30.663 26.693 30.2344 27.9628 30.2027 29.3914C30.1392 30.566 30.3455 31.6295 30.8217 32.5819C31.3296 33.5025 32.1233 34.3438 33.2027 35.1057C34.282 35.8358 35.663 36.5025 37.3455 37.1057C39.0281 37.7089 41.0281 38.2485 43.3455 38.7247L51.3455 40.439C56.7423 41.5819 61.3614 43.0898 65.2027 44.9628C69.0439 46.8358 72.1868 49.0422 74.6312 51.5819C77.0757 54.0898 78.8693 56.9152 80.0122 60.0581C81.1868 63.2009 81.79 66.6295 81.8217 70.3438C81.79 76.7565 80.1868 82.185 77.0122 86.6295C73.8376 91.0739 69.2979 94.4549 63.3931 96.7724C57.5201 99.0898 50.4566 100.249 42.2027 100.249C33.7265 100.249 26.3296 98.9946 20.0122 96.4866C13.7265 93.9787 8.83758 90.1216 5.34552 84.9152C1.8852 79.6771 0.139168 72.9787 0.107422 64.82H25.2503C25.409 67.8041 26.155 70.312 27.4884 72.3438C28.8217 74.3755 30.6947 75.9152 33.1074 76.9628C35.5519 78.0104 38.4566 78.5343 41.8217 78.5343C44.6471 78.5343 47.0122 78.185 48.9169 77.4866C50.8217 76.7882 52.2662 75.82 53.2503 74.5819C54.2344 73.3438 54.7423 71.9311 54.7741 70.3438C54.7423 68.8517 54.2503 67.5501 53.2979 66.439C52.3773 65.2962 50.8535 64.2803 48.7265 63.3914C46.5995 62.4708 43.7265 61.6136 40.1074 60.82L30.3931 58.7247C21.7582 56.8517 14.9487 53.7247 9.96457 49.3438C5.01218 44.9311 2.55187 38.9152 2.58361 31.2962C2.55187 25.1057 4.20266 19.693 7.53599 15.0581C10.9011 10.3914 15.5519 6.75647 21.4884 4.1533C27.4566 1.55012 34.2979 0.248535 42.0122 0.248535C49.8852 0.248535 56.6947 1.566 62.4408 4.20092C68.1868 6.83584 72.6154 10.5501 75.7265 15.3438C78.8693 20.1057 80.4566 25.6771 80.4884 32.0581H55.155Z"/>
<path d="M161.676 1.58187H188.152V64.0581C188.152 71.4866 186.374 77.9152 182.819 83.3438C179.295 88.7406 174.374 92.9152 168.057 95.8676C161.739 98.7882 154.406 100.249 146.057 100.249C137.644 100.249 130.279 98.7882 123.962 95.8676C117.644 92.9152 112.724 88.7406 109.2 83.3438C105.708 77.9152 103.962 71.4866 103.962 64.0581V1.58187H130.438V61.7723C130.438 64.7882 131.105 67.4866 132.438 69.8676C133.771 72.2168 135.613 74.0581 137.962 75.3914C140.343 76.7247 143.041 77.3914 146.057 77.3914C149.105 77.3914 151.803 76.7247 154.152 75.3914C156.501 74.0581 158.343 72.2168 159.676 69.8676C161.009 67.4866 161.676 64.7882 161.676 61.7723V1.58187Z"/>
<path d="M212.804 99.1057V1.58187H254.899C262.137 1.58187 268.471 3.01044 273.899 5.86759C279.328 8.72473 283.55 12.7406 286.566 17.9152C289.582 23.0898 291.09 29.1374 291.09 36.0581C291.09 43.0422 289.534 49.0898 286.423 54.2009C283.344 59.312 279.01 63.2485 273.423 66.0104C267.868 68.7723 261.376 70.1533 253.947 70.1533H228.804V49.5819H248.614C251.725 49.5819 254.376 49.0422 256.566 47.9628C258.788 46.8517 260.487 45.2803 261.661 43.2485C262.868 41.2168 263.471 38.82 263.471 36.0581C263.471 33.2644 262.868 30.8835 261.661 28.9152C260.487 26.9152 258.788 25.3914 256.566 24.3438C254.376 23.2644 251.725 22.7247 248.614 22.7247H239.28V99.1057H212.804Z"/>
<path d="M312.873 99.1057V1.58187H383.158V22.9152H339.349V39.6771H379.539V61.0104H339.349V77.7724H382.968V99.1057H312.873Z"/>
<path d="M408.358 99.1057V1.58187H450.453C457.691 1.58187 464.025 2.89933 469.453 5.53425C474.882 8.16917 479.104 11.9628 482.12 16.9152C485.136 21.8676 486.644 27.8041 486.644 34.7247C486.644 41.7089 485.088 47.5977 481.977 52.3914C478.898 57.185 474.564 60.8041 468.977 63.2485C463.421 65.693 456.929 66.9152 449.501 66.9152H424.358V46.3438H444.167C447.279 46.3438 449.929 45.9628 452.12 45.2009C454.342 44.4073 456.04 43.1533 457.215 41.439C458.421 39.7247 459.025 37.4866 459.025 34.7247C459.025 31.9311 458.421 29.6612 457.215 27.9152C456.04 26.1374 454.342 24.8358 452.12 24.0104C449.929 23.1533 447.279 22.7247 444.167 22.7247H434.834V99.1057H408.358ZM465.501 54.3438L489.882 99.1057H461.12L437.31 54.3438H465.501Z"/>
<path d="M507.331 22.9152V1.58187H592.093V22.9152H562.76V99.1057H536.665V22.9152H507.331Z"/>
<path d="M614.126 99.1057V1.58187H684.412V22.9152H640.602V39.6771H680.793V61.0104H640.602V77.7724H684.221V99.1057H614.126Z"/>
<path d="M762.183 32.0581C761.929 28.8835 760.738 26.4073 758.611 24.6295C756.516 22.8517 753.326 21.9628 749.04 21.9628C746.31 21.9628 744.072 22.2962 742.326 22.9628C740.611 23.5977 739.341 24.4708 738.516 25.5819C737.691 26.693 737.262 27.9628 737.23 29.3914C737.167 30.566 737.373 31.6295 737.849 32.5819C738.357 33.5025 739.151 34.3438 740.23 35.1057C741.31 35.8358 742.691 36.5025 744.373 37.1057C746.056 37.7089 748.056 38.2485 750.373 38.7247L758.373 40.439C763.77 41.5819 768.389 43.0898 772.23 44.9628C776.072 46.8358 779.214 49.0422 781.659 51.5819C784.103 54.0898 785.897 56.9152 787.04 60.0581C788.214 63.2009 788.818 66.6295 788.849 70.3438C788.818 76.7565 787.214 82.185 784.04 86.6295C780.865 91.0739 776.326 94.4549 770.421 96.7724C764.548 99.0898 757.484 100.249 749.23 100.249C740.754 100.249 733.357 98.9946 727.04 96.4866C720.754 93.9787 715.865 90.1216 712.373 84.9152C708.913 79.6771 707.167 72.9787 707.135 64.82H732.278C732.437 67.8041 733.183 70.312 734.516 72.3438C735.849 74.3755 737.722 75.9152 740.135 76.9628C742.58 78.0104 745.484 78.5343 748.849 78.5343C751.675 78.5343 754.04 78.185 755.945 77.4866C757.849 76.7882 759.294 75.82 760.278 74.5819C761.262 73.3438 761.77 71.9311 761.802 70.3438C761.77 68.8517 761.278 67.5501 760.326 66.439C759.405 65.2962 757.881 64.2803 755.754 63.3914C753.627 62.4708 750.754 61.6136 747.135 60.82L737.421 58.7247C728.786 56.8517 721.976 53.7247 716.992 49.3438C712.04 44.9311 709.58 38.9152 709.611 31.2962C709.58 25.1057 711.23 19.693 714.564 15.0581C717.929 10.3914 722.58 6.75647 728.516 4.1533C734.484 1.55012 741.326 0.248535 749.04 0.248535C756.913 0.248535 763.722 1.566 769.468 4.20092C775.214 6.83584 779.643 10.5501 782.754 15.3438C785.897 20.1057 787.484 25.6771 787.516 32.0581H762.183Z"/>
<path d="M808.323 22.9152V1.58187H893.085V22.9152H863.751V99.1057H837.656V22.9152H808.323Z"/>
</svg>
