<svg width="67" height="100" viewBox="0 0 67 100" fill="none" xmlns="http://www.w3.org/2000/svg">
<path d="M50.0195 33.3398C54.4407 33.3398 58.6807 31.5835 61.807 28.4573C64.9332 25.3311 66.6895 21.0911 66.6895 16.6699C66.6895 12.2488 64.9332 8.00872 61.807 4.88251C58.6807 1.75629 54.4407 0 50.0195 0L16.6797 0C12.2611 0 8.02357 1.75526 4.89918 4.87965C1.7748 8.00403 0.0195358 12.2416 0.0195358 16.6602C0.0195358 21.0787 1.7748 25.3163 4.89918 28.4407C8.02357 31.565 12.2611 33.3203 16.6797 33.3203C12.2586 33.3203 8.01849 35.0766 4.89228 38.2028C1.76606 41.329 0.00977031 45.5691 0.00977031 49.9902C0.00977031 54.4114 1.76606 58.6514 4.89228 61.7776C8.01849 64.9039 12.2586 66.6601 16.6797 66.6601C13.3827 66.6582 10.1592 67.634 7.41674 69.4641C4.67431 71.2942 2.53616 73.8965 1.27267 76.9417C0.00917837 79.987 -0.322905 83.3386 0.318413 86.5726C0.959731 89.8067 2.54565 92.7779 4.87561 95.1106C7.20558 97.4433 10.1749 99.0327 13.4082 99.6778C16.6415 100.323 19.9934 99.9947 23.0402 98.7348C26.087 97.4749 28.6917 95.3398 30.525 92.5995C32.3584 89.8592 33.3379 86.6368 33.3398 83.3398V33.3398H50.0195ZM50.0195 33.3398C46.7245 33.3398 43.5034 34.3169 40.7636 36.1476C38.0239 37.9782 35.8885 40.5802 34.6276 43.6244C33.3666 46.6687 33.0367 50.0185 33.6795 53.2502C34.3223 56.482 35.9091 59.4505 38.239 61.7805C40.569 64.1105 43.5375 65.6972 46.7693 66.34C50.0011 66.9829 53.3509 66.6529 56.3951 65.392C59.4393 64.131 62.0413 61.9956 63.8719 59.2559C65.7026 56.5161 66.6797 53.2951 66.6797 50C66.6792 45.5816 64.9238 41.3443 61.7995 38.2201C58.6752 35.0958 54.4379 33.3404 50.0195 33.3398Z" fill="white"/>
</svg>
