<svg width="101" height="100" viewBox="0 0 101 100" fill="none" xmlns="http://www.w3.org/2000/svg">
<path d="M89.8365 0H11.2651C5.34989 0 0.550781 4.79911 0.550781 10.7143V89.2857C0.550781 95.2009 5.34989 100 11.2651 100H89.8365C95.7517 100 100.551 95.2009 100.551 89.2857V10.7143C100.551 4.79911 95.7517 0 89.8365 0ZM54.9704 77.9911C54.9704 87.7232 49.2561 92.1652 40.9302 92.1652C33.4079 92.1652 29.0552 88.2812 26.8231 83.5714L34.4794 78.9509C35.9526 81.5625 37.2919 83.7723 40.5285 83.7723C43.6088 83.7723 45.5731 82.567 45.5731 77.8571V45.9152H54.9704V77.9911ZM77.2026 92.1652C68.4749 92.1652 62.8276 88.0134 60.082 82.567L67.7383 78.1473C69.7472 81.4286 72.3811 83.8616 77.0017 83.8616C80.8856 83.8616 83.3856 81.9196 83.3856 79.2187C83.3856 76.0045 80.841 74.8661 76.5329 72.9687L74.1892 71.9643C67.4035 69.0848 62.9169 65.4464 62.9169 57.7902C62.9169 50.7366 68.2963 45.3795 76.6669 45.3795C82.649 45.3795 86.9347 47.4554 90.0151 52.9018L82.6936 57.5893C81.0865 54.7098 79.3454 53.5714 76.6445 53.5714C73.899 53.5714 72.1579 55.3125 72.1579 57.5893C72.1579 60.4018 73.899 61.5402 77.9392 63.3036L80.2829 64.308C88.274 67.7232 92.7606 71.2277 92.7606 79.0848C92.7606 87.5223 86.1088 92.1652 77.2026 92.1652Z" fill="white"/>
</svg>
