<svg width="164" height="100" viewBox="0 0 164 100" fill="none" xmlns="http://www.w3.org/2000/svg">
<path d="M80.6918 100C80.156 100 79.6203 99.8469 79.1356 99.5918L74.2375 96.6835C73.4976 96.2754 73.8548 96.1223 74.1099 96.0458C75.0793 95.7141 75.2834 95.6376 76.3294 95.0253C76.4314 94.9743 76.5845 94.9998 76.6865 95.0508L80.4622 97.2958C80.5897 97.3723 80.7938 97.3723 80.9214 97.2958L95.6668 88.7751C95.7944 88.6986 95.8964 88.5455 95.8964 88.3669V71.351C95.8964 71.1724 95.8199 71.0193 95.6668 70.9428L80.9214 62.4476C80.7938 62.371 80.6152 62.371 80.4622 62.4476L65.7167 70.9428C65.5637 71.0193 65.4871 71.1979 65.4871 71.351V88.3669C65.4871 88.52 65.5892 88.673 65.7167 88.7496L69.7475 91.0711C71.9414 92.1681 73.2935 90.867 73.2935 89.5915V72.7796C73.2935 72.55 73.4721 72.3459 73.7272 72.3459H75.5895C75.8191 72.3459 76.0232 72.5245 76.0232 72.7796V89.5915C76.0232 92.5252 74.4415 94.1835 71.6608 94.1835C70.819 94.1835 70.1302 94.1835 68.2678 93.2651L64.3901 91.0456C63.4462 90.4843 62.834 89.4639 62.834 88.3669V71.351C62.834 70.254 63.4207 69.208 64.3901 68.6723L79.1356 60.1516C80.0795 59.6158 81.304 59.6158 82.2224 60.1516L96.9679 68.6723C97.9118 69.2336 98.5241 70.254 98.5241 71.351V88.3669C98.5241 89.4639 97.9373 90.5098 96.9679 91.0456L82.2224 99.5663C81.7887 99.8469 81.253 100 80.6918 100ZM92.6055 83.2137C92.6055 80.0248 90.4625 79.1829 85.9216 78.5706C81.3295 77.9584 80.8704 77.6522 80.8704 76.5808C80.8704 75.6879 81.253 74.5144 84.646 74.5144C87.6818 74.5144 88.8043 75.1777 89.2635 77.2185C89.3145 77.4226 89.4676 77.5502 89.6717 77.5502H91.585C91.7126 77.5502 91.8146 77.4992 91.8912 77.4226C91.9677 77.3206 92.0187 77.2185 91.9932 77.091C91.6871 73.5704 89.3656 71.9377 84.646 71.9377C80.4367 71.9377 77.9366 73.7235 77.9366 76.6828C77.9366 79.9227 80.4367 80.7901 84.4674 81.1983C89.289 81.683 89.6717 82.3718 89.6717 83.3157C89.6717 84.9739 88.3451 85.6627 85.2328 85.6627C81.3296 85.6627 80.4622 84.6933 80.1815 82.7545C80.156 82.5504 79.9775 82.3973 79.7479 82.3973H77.8345C77.6049 82.3973 77.4008 82.5759 77.4008 82.831C77.4008 85.3056 78.7529 88.2649 85.2072 88.2649C89.9268 88.2649 92.6055 86.4281 92.6055 83.2137ZM106.509 70.4326C106.509 71.9888 105.233 73.2643 103.677 73.2643C102.121 73.2643 100.846 71.9888 100.846 70.4326C100.846 68.8254 102.172 67.6008 103.677 67.6008C105.208 67.5753 106.509 68.8254 106.509 70.4326ZM106.05 70.4326C106.05 69.106 104.978 68.06 103.652 68.06C102.351 68.06 101.279 69.106 101.279 70.4326C101.279 71.7592 102.351 72.8306 103.652 72.8306C104.978 72.8051 106.05 71.7336 106.05 70.4326ZM104.902 72.0143H104.239C104.213 71.8612 104.111 71.0448 104.111 71.0193C104.06 70.8408 104.009 70.7387 103.779 70.7387H103.218V72.0143H102.606V68.8254H103.703C104.085 68.8254 104.825 68.8254 104.825 69.6672C104.825 70.254 104.443 70.3816 104.213 70.4581C104.647 70.4836 104.672 70.7642 104.749 71.1724C104.774 71.4275 104.825 71.8612 104.902 72.0143ZM104.188 69.7693C104.188 69.3356 103.881 69.3356 103.728 69.3356H103.218V70.2285H103.703C104.111 70.2285 104.188 69.9479 104.188 69.7693ZM35.0268 33.4159C35.0268 32.7271 34.6697 32.1148 34.0829 31.7832L18.4446 22.7778C18.1895 22.6247 17.8833 22.5482 17.5772 22.5226H17.4241C17.118 22.5226 16.8374 22.6247 16.5567 22.7778L0.943913 31.7832C0.357156 32.1148 0 32.7526 0 33.4159L0.0255112 57.6515C0.0255112 57.9831 0.204089 58.2893 0.484712 58.4678C0.765335 58.6464 1.12249 58.6464 1.42862 58.4678L10.7147 53.136C11.3014 52.7789 11.6586 52.1666 11.6586 51.5033V40.1764C11.6586 39.5131 12.0158 38.8753 12.6025 38.5436L16.5567 36.2731C16.8629 36.0946 17.169 36.018 17.5006 36.018C17.8323 36.018 18.1639 36.0946 18.4446 36.2731L22.3988 38.5436C22.9855 38.8753 23.3427 39.5131 23.3427 40.1764V51.5033C23.3427 52.1666 23.6999 52.8044 24.2866 53.136L33.5727 58.4678C33.8533 58.6464 34.236 58.6464 34.5166 58.4678C34.7972 58.3148 34.9758 57.9831 34.9758 57.6515L35.0268 33.4159ZM120.54 6.96084V51.9625C120.54 52.6258 120.183 53.2636 119.596 53.5952L103.958 62.6262C103.371 62.9578 102.657 62.9578 102.07 62.6262L86.4318 53.5952C85.845 53.2636 85.4879 52.6258 85.4879 51.9625V33.9006C85.4879 33.2373 85.845 32.5995 86.4318 32.2679L102.07 23.237C102.657 22.9053 103.371 22.9053 103.958 23.237L107.861 25.4819C108.295 25.737 108.856 25.4054 108.856 24.9207V0.940208C108.856 0.225895 109.621 -0.233305 110.259 0.123851L119.571 5.32813C120.158 5.63426 120.54 6.27204 120.54 6.96084ZM108.805 39.8447C108.805 39.6661 108.703 39.5131 108.575 39.4365L103.218 36.3242C103.065 36.2476 102.886 36.2476 102.733 36.3242L97.3761 39.4365C97.223 39.5131 97.1465 39.6661 97.1465 39.8447V46.0439C97.1465 46.2225 97.2485 46.3756 97.3761 46.4521L102.733 49.5389C102.886 49.6155 103.065 49.6155 103.193 49.5389L108.55 46.4521C108.703 46.3756 108.78 46.2225 108.78 46.0439V39.8447H108.805ZM162.327 39.6661C162.914 39.3345 163.271 38.6967 163.271 38.0334V33.671C163.271 33.0077 162.914 32.3699 162.327 32.0383L146.791 23.0073C146.204 22.6757 145.49 22.6757 144.903 23.0073L129.265 32.0383C128.678 32.3699 128.321 33.0077 128.321 33.671V51.7329C128.321 52.4217 128.678 53.034 129.265 53.3656L144.801 62.218C145.363 62.5496 146.077 62.5496 146.664 62.218L156.052 56.9882C156.689 56.631 156.689 55.7126 156.052 55.3555L140.311 46.3245C140.005 46.146 139.827 45.8398 139.827 45.5082V39.8447C139.827 39.5131 140.005 39.2069 140.311 39.0284L145.209 36.1966C145.49 36.018 145.873 36.018 146.153 36.1966L151.052 39.0284C151.332 39.2069 151.536 39.5131 151.536 39.8447V44.2836C151.536 44.998 152.327 45.4572 152.965 45.1L162.327 39.6661ZM142.607 40.559C142.505 40.6356 142.429 40.7376 142.429 40.8652V44.3347C142.429 44.4622 142.505 44.5898 142.607 44.6408L145.618 46.3756C145.72 46.4521 145.873 46.4521 145.975 46.3756L148.985 44.6408C149.087 44.5643 149.164 44.4622 149.164 44.3347V40.8652C149.164 40.7376 149.087 40.61 148.985 40.559L145.975 38.8243C145.873 38.7477 145.72 38.7477 145.618 38.8243L142.607 40.559ZM77.758 51.6564V33.6965C77.758 33.0332 77.3498 32.3955 76.7631 32.0638L61.1757 23.0839C60.64 22.7777 59.9002 22.7267 59.2879 23.0839L43.7006 32.0638C43.1138 32.3955 42.7057 33.0077 42.7057 33.6965V51.6564C42.7057 52.3707 43.1904 52.9829 43.7261 53.2891L59.3389 62.269C59.9512 62.6262 60.6655 62.6007 61.2268 62.269L76.7886 53.2891C77.2478 53.034 77.5794 52.6003 77.707 52.0901C77.7325 51.9625 77.758 51.8094 77.758 51.6564ZM58.8032 19.7929L58.5991 19.9205H58.8797L58.8032 19.7929ZM78.2427 53.0085L78.1407 52.8299V53.0595L78.2427 53.0085Z" fill="white"/>
</svg>
