<svg width="169" height="100" viewBox="0 0 169 100" fill="none" xmlns="http://www.w3.org/2000/svg">
<path fill-rule="evenodd" clip-rule="evenodd" d="M84.2641 0C61.9049 0 47.9378 11.1083 42.3459 33.3333C50.7295 22.225 60.5132 18.0583 71.6886 20.8333C78.0686 22.4178 82.6293 27.0205 87.6678 32.1093C95.8922 40.4007 105.408 50 126.182 50C148.541 50 162.509 38.8917 168.1 16.6667C159.717 27.775 149.941 31.9417 138.758 29.1667C132.378 27.5822 127.817 22.9795 122.77 17.8907C114.554 9.59088 105.047 0 84.2641 0ZM42.3459 50C19.9868 50 6.01962 61.1083 0.427734 83.3333C8.81137 72.2166 18.5951 68.0583 29.7705 70.8333C36.1504 72.4178 40.7111 77.0205 45.758 82.1093C53.974 90.4007 63.4894 100 84.2725 100C106.632 100 120.599 88.8917 126.191 66.6667C117.807 77.775 108.023 81.9417 96.8479 79.1667C90.468 77.5822 85.9073 72.9795 80.8687 67.8907C72.636 59.5993 63.1206 50 42.3459 50Z" fill="white"/>
</svg>
